<svg width="24" height="24" viewBox="0 0 24 24" xmlns="http://www.w3.org/2000/svg">
  <path fill="currentColor" d="M10 2.6A2.6 2.6 0 0 0 7.4 5.2 3 3 0 0 0 5 8a3 3 0 0 0-1.4 2.5c0 .9.4 1.7 1 2.3a3 3 0 0 0 .6 3.4A3 3 0 0 0 8 19.2a2.6 2.6 0 0 0 2.6 2.2c.8 0 1.4-.6 1.4-1.4V4a1.4 1.4 0 0 0-2-1.4Zm-1 4.9a.75.75 0 0 1 0 1.5.75.75 0 0 1 0-1.5Zm-1.6 4a.75.75 0 0 1 0 1.5.75.75 0 0 1 0-1.5Z"/>
  <path fill="currentColor" d="M14 2.6A1.4 1.4 0 0 0 12 4v16c0 .8.6 1.4 1.4 1.4A2.6 2.6 0 0 0 16 19.2a3 3 0 0 0 2.8-2.9 3 3 0 0 0 .6-3.5c.6-.6 1-1.4 1-2.3A3 3 0 0 0 19 8a3 3 0 0 0-2.4-2.8A2.6 2.6 0 0 0 14 2.6Zm1 4.9a.75.75 0 0 1 0 1.5.75.75 0 0 1 0-1.5Zm1.6 4a.75.75 0 0 1 0 1.5.75.75 0 0 1 0-1.5Z"/>
</svg>
